<?xml version="1.0" encoding="utf-8"?>
<!-- Generator: Adobe Illustrator 19.2.1, SVG Export Plug-In . SVG Version: 6.00 Build 0)  -->
<svg version="1.1" id="layer" xmlns="http://www.w3.org/2000/svg" xmlns:xlink="http://www.w3.org/1999/xlink" x="0px" y="0px"
	 viewBox="0 0 652 652" style="enable-background:new 0 0 652 652;" xml:space="preserve">
<style type="text/css">
	.st0{fill:#66492F;}
	.st1{fill:#F5C229;}
	.st2{fill:#FFE52B;}
	.st3{fill:#231F20;}
	.st4{fill:#96A0A9;}
	.st5{fill:#BABFC8;}
	.st6{fill:#DF4145;}
	.st7{fill:#FFFFFF;}
	.st8{fill:#957559;}
</style>
<path class="st0" d="M322,571.2c-121.4,0-221-95.6-227.3-215.5H49.6v-12.1c0-72.7,28.3-141.1,79.8-192.6
	C180.8,99.5,249.2,71.2,322,71.2c72.8,0,141.2,28.3,192.6,79.8c51.4,51.5,79.8,119.9,79.8,192.6v12.1h-45.1
	C542.9,475.5,443.4,571.2,322,571.2"/>
<path class="st1" d="M322,83.3c-143.7,0-260.3,116.6-260.3,260.3h44.8C106.5,462.6,203,559,322,559c119,0,215.5-96.4,215.5-215.5
	h44.8C582.2,199.8,465.7,83.3,322,83.3"/>
<path class="st2" d="M463.8,343.6c0-78.3-63.5-141.9-141.9-141.9c-78.3,0-141.9,63.5-141.9,141.9h-59.9
	c0,111.4,90.3,201.7,201.7,201.7c111.4,0,201.7-90.3,201.7-201.7 M322,471.1c-70.5,0-127.6-57.1-127.6-127.5
	c0-70.5,57.1-127.5,127.6-127.5c70.5,0,127.6,57.1,127.6,127.5C449.5,414,392.4,471.1,322,471.1"/>
<path class="st3" d="M166.2,339.3c-0.3-1.9-1-3.6-2-5.3c-0.2-0.4-0.5-0.6-0.9-0.6c-0.4-0.1-0.7,0.1-1,0.3c0,0.1-0.3,0.4-0.8,0.8
	c-0.8-1.1-1.7-2.1-2.8-2.9l0.8-0.8c0.3-0.3,0.4-0.6,0.4-1c0-0.4-0.2-0.7-0.5-0.9c-1.8-1.1-3.7-2-5.8-2.4c-1-0.2-2.1-0.3-3.2-0.3
	c-8.9,0-16.1,7.2-16.1,16c0,3.2,0.9,6.3,2.7,8.9c0.2,0.3,0.5,0.5,0.9,0.5h0.1c0.3,0,0.6-0.1,0.9-0.4l0.8-0.8c0.9,1.1,1.8,2,3,2.8
	c-0.6,0.6-0.9,0.9-0.9,0.9c-0.2,0.3-0.3,0.6-0.3,1c0.1,0.4,0.3,0.6,0.6,0.9c2.5,1.5,5.4,2.3,8.3,2.3c8.9,0,16.1-7.2,16.1-16.1
	C166.4,341.2,166.3,340.3,166.2,339.3"/>
<path class="st4" d="M159.7,336.3c-3.9,3.9-11.4,11.3-15.4,15.2c-1.2-0.7-2.2-1.6-3-2.8l15.6-15.5C158.1,334,159,335,159.7,336.3"/>
<path class="st5" d="M164,342.2c0,7.5-6.1,13.6-13.7,13.6c-2,0-3.9-0.4-5.7-1.2c0.2-0.1,0.4-0.4,0.6-0.6c0,0,0.1-0.1,0.1-0.1
	c4.2-4.1,14-13.9,17.4-17.2c0.5,1,0.8,2,1,3.1C163.9,340.5,164,341.3,164,342.2"/>
<path class="st5" d="M156.7,330.1l-18.5,18.3c-1-1.9-1.5-4.1-1.5-6.2c0-7.6,6.1-13.7,13.6-13.7c0.9,0,1.8,0.1,2.7,0.2
	C154.4,329,155.6,329.5,156.7,330.1"/>
<path class="st3" d="M477.7,339.3c0.3-1.9,1-3.6,2-5.3c0.2-0.4,0.5-0.6,0.9-0.6c0.4-0.1,0.7,0.1,1,0.3c0,0.1,0.3,0.4,0.8,0.8
	c0.8-1.1,1.7-2.1,2.8-2.9l-0.8-0.8c-0.3-0.3-0.4-0.6-0.4-1c0-0.4,0.2-0.7,0.5-0.9c1.8-1.1,3.7-2,5.8-2.4c1-0.2,2.1-0.3,3.2-0.3
	c8.9,0,16.1,7.2,16.1,16c0,3.2-0.9,6.3-2.7,8.9c-0.2,0.3-0.5,0.5-0.9,0.5H506c-0.3,0-0.6-0.1-0.9-0.4l-0.8-0.8c-0.9,1.1-1.8,2-3,2.8
	c0.6,0.6,0.9,0.9,0.9,0.9c0.2,0.3,0.3,0.6,0.3,1c-0.1,0.4-0.3,0.6-0.6,0.9c-2.5,1.5-5.4,2.3-8.3,2.3c-8.9,0-16.1-7.2-16.1-16.1
	C477.5,341.2,477.6,340.3,477.7,339.3"/>
<path class="st4" d="M484.2,336.3c3.9,3.9,11.4,11.3,15.4,15.2c1.2-0.7,2.2-1.6,3-2.8l-15.6-15.5C485.8,334,484.9,335,484.2,336.3"
	/>
<path class="st5" d="M479.9,342.2c0,7.5,6.1,13.6,13.7,13.6c2,0,3.9-0.4,5.7-1.2c-0.2-0.1-0.4-0.4-0.6-0.6c0,0-0.1-0.1-0.1-0.1
	c-4.2-4.1-14-13.9-17.4-17.2c-0.5,1-0.8,2-1,3.1C480,340.5,479.9,341.3,479.9,342.2"/>
<path class="st5" d="M487.2,330.1l18.5,18.3c1-1.9,1.5-4.1,1.5-6.2c0-7.6-6.1-13.7-13.7-13.7c-0.9,0-1.8,0.1-2.7,0.2
	C489.6,329,488.3,329.5,487.2,330.1"/>
<path class="st3" d="M156.9,310.9c-3.8-0.1-7.1-2.4-8.8-5.7c-0.2-0.3-0.5-0.8-1.1-1.4c-0.8-0.7-1.6-1.4-2.4-1.9L102.6,277
	c-1-0.6-2-1.1-2.8-1.3c-0.5-0.2-1.1-0.3-1.8-0.3h-0.4c-3.7,0-7.1-1.9-8.9-5.1c-1.9-3.2-1.9-7.2,0.1-10.4l16.6-27.9
	c1.9-3.1,5.2-5,8.9-5c0.8,0,1.6,0.1,2.4,0.3l7.8,1.9l-5.4-6.1c-3-3.4-3.5-8.2-1.2-12.1l16.6-27.9c1.8-3.1,5.2-5,8.8-5
	c0.1,0,0.3,0,0.4,0c3.8,0.2,7.2,2.4,8.8,5.8c0.3,0.5,0.6,0.9,1,1.3c0.7,0.6,1.5,1.3,2.5,1.9c0,0,41.9,25,41.9,25l-22.7-41
	c-0.6-1.1-1.2-2-1.8-2.6c-0.4-0.5-1-0.9-1.6-1.2c-3.3-1.8-5.3-5.3-5.3-9c0-3.7,2-7.2,5.3-9l46.3-25.7c5.8-3.2,11.1-4.8,16.2-4.8
	c0.7,0,1.5,0,2.2,0.1c7.2,0.7,13.1,5.1,17.6,13.2l7.3,13.2c2.8,5,3.9,9.6,3.5,13.9c-0.1,1.2-0.4,2.4-0.7,3.5l2.1,1.6
	c2.6-8.9,10.8-15.4,20.4-15.4c4.1,0,8,1.1,11.3,3.3l3.8-33.2c0.1-1.2,0.2-2.2,0-3c-0.1-0.6-0.3-1.2-0.6-1.9
	c-1.6-3.4-1.3-7.4,0.9-10.5c1.9-2.7,5.1-4.3,8.4-4.3c0.4,0,0.8,0,1.2,0.1l52.7,6.1c11.2,1.3,16.8,7.1,19.5,11.7
	c3.4,5.8,4.6,12.9,3.7,21.3l-2.8,24.1c1.2-0.2,2.5-0.3,3.7-0.3c8.6,0,16,5,19.3,12.3l18.5-27.2c0.7-1,1.2-2,1.5-2.7
	c0.2-0.6,0.3-1.3,0.4-2c0.2-3.7,2.3-7.1,5.7-8.8c1.4-0.7,3-1.1,4.6-1.1c2.1,0,4.1,0.6,5.8,1.8l24.7,16.8c3.1,2.1,4.8,5.8,4.5,9.5
	c-0.4,3.7-2.7,7-6.2,8.5c-0.3,0.1-0.9,0.4-1.6,1.1c-0.8,0.7-1.5,1.5-2.1,2.4l-19.2,28.2c0.5-0.1,0.9-0.1,1.4-0.1
	c11.7,0,21.3,9.6,21.3,21.3c0,1.6-0.2,3.2-0.6,4.7l0.2-0.1c15.1-30.8,15.1-30.9,15.1-30.9c1.9-3.7,2.8-5.5,3.1-6.4
	c0.5-1.1,0.9-2.4,1.4-3.8c1.1-3.8,4.4-6.7,8.4-7.3c0.5-0.1,1-0.1,1.5-0.1c3.5,0,6.7,1.7,8.6,4.6l17.9,27c3.1,4.7,1.8,11.2-2.9,14.3
	c-0.9,0.6-1.2,0.9-1.2,0.9c-0.7,1.1-1.4,2.3-2,3.6l-1.2,2.4l3.5-0.1c0.7-0.1,1.2-0.1,1.8-0.3c0.3-0.1,0.5-0.1,0.6-0.3l1.8-1.1
	c1.7-1.1,3.7-1.7,5.7-1.7c3.5,0,6.7,1.7,8.6,4.6l9.6,14.4c2.5,3.8,2.3,8.7-0.6,12.2c-2,2.4-4.9,3.9-8,3.9c-1.3,0-2.5-0.2-3.7-0.7
	c-0.4-0.1-0.8-0.2-1.2-0.2h-0.2c-1.3,0-3.3,0.1-5.8,0.3l-36,2.3l-2.8,1.9c9.4,2.2,16.3,10.7,16.3,20.7c0,11.7-9.5,21.3-21.3,21.3
	c-11.7,0-21.3-9.6-21.3-21.3c0-2.1,0.3-4.3,1-6.4c-1.8-0.8-3.4-2.1-4.5-3.8l-16.4-24.8c-1.7-2.6-2.2-5.9-1.2-8.8
	c-7.7-1.6-13.9-7.4-16.1-14.9c-0.6,0.1-1.2,0.1-1.8,0.1c-2.1,0-4.1-0.6-5.8-1.8l-24.7-16.7c-1.8-1.2-3.1-3-3.9-4.9
	c-0.3,0-0.5,0-0.8,0c-8.3,0-15.7-4.9-19.2-12.2c-3.3,1.6-7.1,2.4-11.2,2.4c-1.3,0-2.6-0.1-4-0.3l-52.7-6c-1-0.1-2-0.4-3-0.9
	c-3.5,2.4-7.6,3.6-11.8,3.6c-1.3,0-2.5-0.1-3.8-0.4c-0.7,0.6-1.4,1.2-2.2,1.6l-24.7,13.7c-1.5,0.8-3.2,1.3-5,1.3
	c-1.4,0-2.8-0.3-4-0.9c-0.5,3.1-2.4,5.9-5.2,7.4L216,228.7c-1.5,0.8-3.1,1.3-4.8,1.3l-14.4,24.2c-1.3,2.2-3.4,3.8-5.8,4.5
	c0.5,2.4,0.1,5-1.3,7.3l-8.7,14.7c-1.3,2.1-3.3,3.7-5.6,4.5c0.4,2.4,0,4.9-1.3,7l-8,13.5c-1.9,3.1-5.2,5.1-8.9,5.1
	C157.1,310.9,157,310.9,156.9,310.9"/>
<path class="st2" d="M157,307.4c-2.5-0.1-4.8-1.6-5.9-3.8c-0.4-0.8-1-1.6-1.8-2.4c-1-0.9-2-1.7-3.1-2.4l-41.9-25
	c-1.3-0.7-2.5-1.3-3.5-1.6c-0.9-0.3-1.8-0.4-2.8-0.4c0,0-0.3,0-0.4,0c-2.4,0-4.7-1.3-5.9-3.4c-1.3-2.2-1.2-4.9,0-7l16.6-27.8
	c1.3-2.1,3.5-3.4,5.9-3.4c0.5,0,1.1,0.1,1.6,0.2l18.6,4.5l-12.9-14.3c-2-2.2-2.3-5.5-0.8-8.1l16.6-27.8c1.2-2.1,3.5-3.4,5.9-3.4
	c0.1,0,0.2,0,0.3,0c2.5,0.1,4.8,1.6,5.9,3.8c0.4,0.9,1,1.6,1.7,2.3c0.9,0.9,1.9,1.6,3.2,2.4l41.9,24.9c1.3,0.7,2.5,1.3,3.6,1.6
	c0.8,0.3,1.6,0.4,2.5,0.4c0.1,0,0.5,0,0.6,0c0.4,0,0.7,0.1,1,0.1c-0.1-0.2-0.1-0.5-0.2-0.7c-0.4-1.4-0.9-2.6-1.5-3.6l-24-43.3
	c-0.7-1.3-1.5-2.4-2.3-3.3c-0.7-0.7-1.5-1.3-2.5-1.9c-2.2-1.2-3.5-3.5-3.5-6c0-2.5,1.4-4.8,3.5-6l46.3-25.7c5.3-2.9,10-4.3,14.6-4.3
	c0.6,0,1.3,0,1.9,0.1c6,0.6,11,4.4,14.9,11.5l7.3,13.2c2.4,4.4,3.5,8.3,3.1,11.9c-0.1,1.5-0.5,3.2-1.5,4.9l8.9,6.9
	c0-0.2,0-0.3,0-0.5c0-9.8,8-17.8,17.8-17.8c5.7,0,10.7,2.6,14,6.8l4.6-39.8c0.2-1.5,0.2-2.8,0-3.9c-0.1-1-0.4-1.9-0.9-2.9
	c-1.1-2.3-0.9-4.9,0.6-7c1.3-1.8,3.4-2.9,5.6-2.9c0.3,0,0.5,0,0.8,0.1l52.7,6.1c9.8,1.1,14.6,6.1,16.9,10c3,5.1,4.1,11.6,3.2,19.2
	l-3.4,29.4c2.4-1.1,5-1.8,7.8-1.8c9.6,0,17.5,7.7,17.8,17.2l22.8-33.6c0.9-1.3,1.5-2.4,1.9-3.5c0.3-0.9,0.5-1.9,0.6-3.1
	c0.1-2.5,1.5-4.7,3.8-5.9c1-0.5,2-0.7,3.1-0.7c1.4,0,2.7,0.4,3.9,1.2l24.7,16.8c2.1,1.4,3.2,3.8,3,6.3c-0.2,2.5-1.8,4.7-4.1,5.7
	c-0.8,0.4-1.7,0.9-2.5,1.7c-1,0.9-1.9,1.9-2.6,3l-24.8,36.5c2.8-1.9,6.2-3,9.9-3c9.8,0,17.8,8,17.8,17.9c0,8-5.4,14.9-12.7,17
	c0.1,0,0.2,0,0.3,0c0.9,0,1.9-0.1,2.9-0.6c1.3-0.4,2.4-1,3.4-1.6l11.9-7.9c0,0,15.5-31.7,15.5-31.7c1.6-3.1,2.7-5.3,3.2-6.7
	c0.5-1.2,1.1-2.6,1.5-4.2c0.8-2.5,2.9-4.4,5.6-4.8c0.3-0.1,0.7-0.1,1-0.1c2.3,0,4.4,1.1,5.7,3.1l17.9,27c2.1,3.2,1.2,7.4-1.9,9.6
	c-1.3,0.8-1.9,1.5-2.2,1.9c-0.8,1.2-1.5,2.5-2.2,3.9l-3.7,7.7l9.3-0.4c0.9-0.1,1.7-0.2,2.5-0.4c0.6-0.1,1.2-0.4,1.6-0.7l1.8-1.1
	c1.2-0.8,2.5-1.1,3.8-1.1c2.2,0,4.4,1.1,5.7,3.1l9.6,14.4c1.6,2.5,1.5,5.7-0.4,8.1c-1.3,1.6-3.3,2.6-5.4,2.6c-0.8,0-1.7-0.1-2.5-0.5
	c-0.8-0.3-1.6-0.4-2.4-0.4h-0.2c-1.4,0-3.5,0.1-6.1,0.3l-36.9,2.4l-11.9,7.9c-1,0.7-1.9,1.4-2.6,2.1c2.4-1.2,5.1-1.9,7.9-1.9
	c9.8,0,17.8,8,17.8,17.8c0,9.9-8,17.8-17.8,17.8s-17.8-7.9-17.8-17.8c0-3.3,0.9-6.4,2.4-9c-0.1,0-0.2,0-0.3,0.1c-0.2,0-0.4,0-0.6,0
	c-2.3,0-4.4-1.1-5.7-3.1l-16.4-24.8c-1.4-2.1-1.5-4.8-0.3-7c0.8-1.4,2-2.5,3.4-3.1c-0.9,0.1-1.9,0.2-2.9,0.2
	c-9.5,0-17.2-7.4-17.8-16.7c-0.4,0.4-0.8,0.6-1.3,0.9c-1,0.5-2,0.7-3.1,0.7c-1.4,0-2.7-0.4-3.9-1.1l-24.7-16.8
	c-1.9-1.3-3.1-3.5-3-5.9c-1.2,0.2-2.4,0.4-3.6,0.4c-8.5,0-15.6-5.9-17.4-13.9c-2.8,2.1-7,4.1-13,4.1h0c-1.2,0-2.4-0.1-3.6-0.2
	l-52.7-6.1c-1.3-0.1-2.6-0.7-3.6-1.5c-3.1,2.7-7.2,4.3-11.6,4.3c-1.8,0-3.5-0.3-5.1-0.8c-0.6,1.1-1.5,1.9-2.6,2.5l-24.7,13.7
	c-1,0.6-2.2,0.9-3.3,0.9c-1.6,0-3.2-0.5-4.5-1.6l-12.1-10.4l1,1.8c0.8,1.4,1.5,2.4,2.3,3.3c0.7,0.7,1.5,1.4,2.5,1.9
	c2.2,1.2,3.5,3.6,3.5,6c0,2.5-1.4,4.8-3.5,6l-26.1,14.4c-1,0.6-2.2,0.9-3.3,0.9c-0.6,0-1.2-0.1-1.7-0.2c-0.1,0.4-0.3,0.6-0.5,0.9
	l-15,25.2c-1.2,2.1-3.5,3.4-5.9,3.4c-0.1,0-0.2,0-0.2,0c-0.9,0-1.7-0.2-2.5-0.6l0.8,0.9c2,2.2,2.3,5.5,0.8,8.1l-8.7,14.7
	c-1.3,2.1-3.5,3.4-5.9,3.4c-0.5,0-1.1-0.1-1.6-0.2L170,282c0.5,0.4,0.9,1,1.2,1.6c1.3,2.1,1.3,4.9,0,7l-8.1,13.5
	c-1.2,2.1-3.5,3.4-5.9,3.4C157.2,307.4,157.1,307.4,157,307.4 M343,164.6c0.1-0.4,0.1-0.8,0.2-1.2l3.4-30c0-0.5,0.1-0.9,0.1-1.2
	l-4.2-0.5l-3.7,32.4L343,164.6z M217.3,160.8l4.4-2.4l-1.6-3l-4.4,2.4L217.3,160.8z"/>
<path class="st6" d="M192.7,220.9l-41.9-25c-1.7-1-3.2-2.1-4.5-3.4c-1.3-1.2-2.3-2.6-3-4.1l-16.6,27.8l27.7,30.9l-40.3-9.9
	l-16.6,27.8c1.8,0,3.5,0.2,5.1,0.7c1.6,0.4,3.3,1.2,5.1,2.3l41.9,24.9c1.6,0.9,3,2.1,4.3,3.4c1.4,1.4,2.4,2.7,3.1,4.2l8-13.5
	c-1.7,0.1-3.4-0.1-5.1-0.7c-1.7-0.5-3.4-1.2-5.1-2.3l-36.4-21.7l53.5,13.1l8.7-14.7l-36.8-41l36.4,21.7c1.6,0.9,3,2,4.3,3.4
	c1.4,1.3,2.4,2.7,3.1,4.1l15-25.2c-1.7,0.1-3.4-0.1-5.1-0.6C196.2,222.7,194.5,221.9,192.7,220.9 M267.1,177.7l-17.6-13.6l1.3-0.6
	c2.5-1.4,3.9-3.2,4.1-5.3c0.2-2.2-0.6-4.8-2.3-7.9l-7.3-13.2c-2.8-5-5.9-7.6-9.5-8c-3.6-0.3-7.8,0.8-12.5,3.4l-46.3,25.7
	c1.6,0.9,3,2,4.1,3.2c1.2,1.2,2.3,2.8,3.3,4.6l24,43.3c0.9,1.6,1.6,3.4,2.1,5.2c0.5,1.9,0.7,3.6,0.6,5.3l26.1-14.4
	c-1.6-0.9-3-1.9-4.1-3.2c-1.2-1.2-2.3-2.7-3.3-4.6l-9.5-17.1l6.7-3.7l24.4,20.8l24.7-13.7c-1.7-0.9-3.2-1.8-4.5-2.7
	C270.2,180.2,268.7,179,267.1,177.7 M226.6,163.5l-12,6.6l-8.3-15l11.4-6.3c2.3-1.3,3.8-1.7,4.8-1.2c0.9,0.4,2.1,1.8,3.3,4.1l2.2,4
	c1.2,2.1,1.7,3.7,1.6,4.7C229.4,161.5,228.4,162.5,226.6,163.5 M363.6,115.6l-52.7-6.1c0.8,1.6,1.3,3.3,1.5,4.9
	c0.2,1.7,0.2,3.5,0,5.6l-5.6,48.4c-0.2,1.8-0.6,3.6-1.3,5.3c-0.7,1.8-1.5,3.3-2.6,4.6l52.7,6c5.8,0.6,10.1-0.6,13.1-3.8
	c3-3.2,4.8-7.9,5.5-14l3.4-29.4c0.7-6.1-0.1-11.1-2.3-14.9C373.1,118.5,369.2,116.3,363.6,115.6 M353.4,134.1l-3.4,30
	c-0.3,3-1,5.1-1.8,6.2c-0.9,1.1-2.6,1.5-5.3,1.2l-11.6-1.3l5.3-46.1l11.6,1.3c2.7,0.3,4.4,1.1,5,2.3
	C353.6,128.9,353.7,131.1,353.4,134.1 M459.1,162.7c1.4-1.3,2.9-2.3,4.4-2.9L438.9,143c-0.1,1.8-0.4,3.5-1,5.1
	c-0.6,1.6-1.5,3.3-2.7,5L407.5,194c-1,1.5-2.3,2.9-3.7,4.2c-1.4,1.3-2.9,2.3-4.4,2.9l24.7,16.7c0.1-1.8,0.4-3.5,1-5.2
	c0.6-1.6,1.5-3.2,2.7-5l27.8-40.8C456.5,165.4,457.7,164,459.1,162.7 M529.2,237.7l-1.8,1.1c-1.1,0.7-2.3,1.3-3.6,1.6
	c-1.3,0.4-2.6,0.6-4,0.6l-20.9,1.1l8.9-18.2c0.8-1.6,1.7-3.1,2.6-4.5c0.9-1.4,2.3-2.8,4.1-4l-17.9-27c-0.5,1.9-1.1,3.5-1.8,5
	c-0.7,1.6-1.8,3.9-3.4,7.1l-16.2,33.3l-13.4,8.9c-1.5,1-3.1,1.8-4.9,2.4c-1.8,0.6-3.5,0.9-5.1,0.9l16.4,24.8
	c0.7-1.6,1.7-3.1,2.8-4.4c1.1-1.2,2.6-2.4,4.3-3.6l13.4-8.9l38.6-2.4c2.9-0.3,5.2-0.4,6.8-0.4c1.6,0,3.2,0.3,4.8,0.9L529.2,237.7z
	 M484.2,275.7c-6.1,0-11,4.9-11,10.9c0,6.1,4.9,11,11,11c6.1,0,11-4.9,11-11C495.2,280.5,490.3,275.7,484.2,275.7 M457.2,222.1
	c0-6.1-4.9-11-11-11c-6.1,0-11,4.9-11,11c0,6,4.9,10.9,11,10.9C452.2,233,457.2,228.1,457.2,222.1 M388.9,172.5c-6.1,0-11,4.9-11,11
	c0,6,4.9,11,11,11c6.1,0,11-4.9,11-11C399.9,177.4,395,172.5,388.9,172.5 M287,159.2c-6.1,0-11,4.9-11,11s4.9,11,11,11
	c6.1,0,11-4.9,11-11S293,159.2,287,159.2"/>
<path class="st3" d="M174.5,393.1l-21.2,16.5c-1,0.8-1.8,1.8-2.6,3.1l-3.9-13.7c0.7,0.3,1.4,0.4,2,0.2c0.9-0.3,1.8-0.8,2.7-1.6
	c0.9-0.8,1.7-1.4,2.3-1.9l-3.2-11.1l-4.2-0.6c-0.3-0.1-0.7-0.1-1-0.1c-0.3,0-0.6,0.1-0.9,0.1c-0.3,0.1-0.6,0.2-0.9,0.4
	c-0.3,0.2-0.6,0.4-0.9,0.7l-2.2-7.7c0.9,0.4,1.8,0.8,2.9,1.1c1,0.3,2.1,0.6,3.2,0.7l23.2,3.7c0.6-0.5,1-1,1.3-1.6 M165,386.5
	l-9.5-1.4l2.1,7.3L165,386.5z M183.3,414l-4.7-10c-0.3,0.4-0.5,0.6-0.7,0.9c-0.2,0.1-0.4,0.3-0.6,0.5c-0.2,0.1-0.6,0.4-0.9,0.6
	c-0.5,0.2-0.9,0.4-1.4,0.6l-0.8,0.4l-16.1,7.4l-0.4,0.2c-0.9,0.4-1.8,0.8-2.5,1c-0.7,0.2-1.5,0.3-2.2,0.2l5,10.8
	c0.5-0.6,0.9-1.1,1.4-1.4c0.5-0.3,1-0.6,1.5-0.8c0.5-0.3,1-0.5,1.5-0.7 M186.4,434l-12.3,4.6l5.4-6.2c0.5-0.6,0.9-1,1.1-1.2
	c0.2-0.2,0.6-0.4,1.1-0.8c0.3-0.2,0.5-0.3,0.8-0.4c0.3-0.1,0.6-0.1,1-0.3l-7.1-10.4c-0.5,1.2-1.2,2.3-2,3.3l-11.8,13.5l5.9,8.7
	l15.6-5.7l-10.9,12.6l5.9,8.6l16.2-5.9c1-0.4,1.8-0.6,2.5-0.7c0.7-0.1,1.4-0.1,2.2,0l-3.6-5.2c-0.2,0.3-0.4,0.6-0.7,0.9
	c-0.3,0.3-0.6,0.6-1,0.8c-0.4,0.3-0.8,0.5-1.3,0.8c-0.5,0.2-0.9,0.4-1.3,0.5l-7.3,2.8l8.7-10 M216,467.8l0.8,0.6
	c1.3,1.2,2,2.6,2,4.2c0.1,1.6-0.5,3-1.7,4.3l-6.6,7.1c-0.8,0.9-1.4,1.6-1.9,2.3c-0.5,0.6-0.8,1.3-1.1,2.1l-7.3-6.9
	c0.1-0.4,0.2-0.8,0.4-1.1c0.2-0.4,0.4-0.6,0.6-1c-0.7,0.4-1.4,0.5-2.1,0.3c-0.7-0.2-1.4-0.6-2.1-1.3l-5.6-5.2
	c-1.6-1.5-2.5-2.9-2.7-4.3c-0.2-1.4,0.4-2.8,1.9-4.4l2.4-2.6c1.1-1.1,2.2-1.6,3.5-1.6c1.3,0.1,2.5,0.6,3.6,1.7l7.1,6.7l0.5,0.4
	c0.4,0.4,0.8,0.6,1.2,0.7c0.4,0.1,0.7-0.1,1.1-0.5c0.4-0.4,0.6-0.9,0.4-1.2c-0.2-0.4-0.5-0.9-1.1-1.4l-7.3-6.8
	c-0.7-0.6-1.3-1.1-1.9-1.5c-0.6-0.3-1.2-0.6-2-0.8l3.8-3.1 M202.9,470.1c-0.7-0.6-1.3-0.9-1.8-0.9c-0.5,0.1-1.1,0.4-1.8,1.2
	l-0.6,0.6c-0.6,0.7-1,1.3-1,1.9c0,0.5,0.3,1.1,1,1.8l1.8,1.6c0.7,0.6,1.3,1,1.8,0.9c0.5-0.1,1.1-0.5,1.8-1.2l2.5-2.6L202.9,470.1z
	 M233,480.5l-9.4-5.9c-0.1,0.8-0.2,1.4-0.3,1.7c-0.2,0.4-0.3,0.7-0.5,1.1c-0.3,0.4-0.6,0.9-0.8,1.3l-0.5,0.8l-3.9,6.2
	c-1.6,2.4-2.2,4.6-2,6.3c0.3,1.7,1.6,3.4,4,4.9l5,3.1c0.8,0.5,1.5,0.9,2.1,1.1c0.6,0.2,1.3,0.1,1.9-0.1l-1.3,2
	c-0.6,0.9-1.1,1.5-1.5,1.6c-0.5,0.2-1.1,0.1-1.9-0.4l-7.7-4.9l-0.4-0.2c-1-0.6-1.7-1.1-2.3-1.6c-0.6-0.5-1.1-1.1-1.4-1.9l-2,4.7
	l14.4,9.1c2.8,1.8,5,2.7,6.7,2.9c1.7,0.1,3.3-1.1,4.9-3.6l0.6-1.1l11.2-17.7l-9.4-5.9c-0.1,0.8-0.2,1.5-0.5,2.1
	c-0.3,0.6-0.7,1.4-1.2,2.2l-0.3,0.6l-4.6,7.2c-0.3,0.6-0.8,1.1-1.3,1.6c-0.5,0.5-1.2,0.5-2,0l-2.2-1.4c-1-0.6-1.5-1.2-1.5-1.8
	c0-0.6,0.3-1.4,0.9-2.4 M273.4,500.4l-14.9-5.9c-2.4-0.9-4.4-1.4-6.1-1.2c-1.7,0.1-3,1.4-3.9,3.5l-1.2,3.1c-1.4,3.4-0.4,5.8,3,7.1
	l8.4,3.4c0.4,0.1,0.7,0.4,1,0.6c0.2,0.2,0.3,0.6,0.1,0.9c-0.2,0.5-0.5,0.7-0.8,0.7c-0.4,0-0.8-0.1-1.3-0.3l-8.3-3.4
	c-1.2-0.5-2.2-0.9-2.8-1.4c-0.6-0.4-1.3-1.1-2.2-2.1l-1.1,5.3l16.6,6.7c2.2,0.9,4.1,1.1,5.7,0.7s2.8-1.6,3.7-3.7l1.1-2.7
	c0.8-1.9,0.8-3.5,0.2-4.7c-0.6-1.2-1.9-2.3-3.8-3l-7.5-3l-0.5-0.1c-0.3-0.1-0.6-0.4-0.7-0.6c-0.2-0.2-0.2-0.5-0.1-0.8
	c0.2-0.4,0.4-0.6,0.6-0.6c0.3,0,0.6,0.1,1,0.2l0.4,0.2l8.1,3.2c1.2,0.4,2,0.9,2.6,1.3c0.6,0.4,1.1,1,1.7,1.9 M312,523
	c-0.6,0.3-1.2,0.5-1.7,0.6c-0.6,0.1-1.2,0.1-1.9,0l-10-1.4L301,503c0.1-0.9,0.3-1.6,0.6-2.2c0.3-0.6,0.7-1.3,1.2-1.8l-13-1.9
	c0.3,0.7,0.5,1.4,0.6,2.1c0.1,0.6,0.1,1.4,0,2.3l-2.8,19.7c-0.1,0.7-0.3,1.4-0.6,2.1c-0.3,0.7-0.7,1.3-1.2,1.8l24.5,3.4
	 M335.7,507.4c2.6-0.1,4.6,0.4,5.9,1.2c1.3,0.9,2,2.6,2.1,5.2l0.3,8.3c0.1,1.9-0.4,3.4-1.4,4.5c-1,1.1-2.5,1.6-4.4,1.6h-1l-13.3,0.5
	c-2.6,0.1-4.6-0.3-6-1.1c-1.4-0.8-2.1-2.4-2.2-4.9l-0.3-8.9c-0.1-1.6,0.5-3.1,1.6-4.2c1.1-1.1,2.5-1.7,4.2-1.8h1.1 M325.9,522.2
	c0,0.9,0.2,1.6,0.6,1.9c0.4,0.4,1,0.5,1.9,0.4l2.9-0.1c0.9,0,1.5-0.3,1.9-0.6c0.3-0.4,0.5-1.1,0.5-2l-0.3-7.8c0-1-0.3-1.6-0.7-2
	c-0.4-0.4-1.2-0.6-2.2-0.6l-2.5,0.1c-1.6,0-2.4,0.9-2.4,2.4L325.9,522.2z M361.3,503.3l0,13.2l-3.9-7.2c-0.4-0.6-0.6-1.1-0.7-1.4
	c-0.1-0.4-0.3-0.8-0.4-1.4c-0.1-0.3-0.1-0.6-0.1-0.8c0-0.3,0-0.6,0.1-1.1l-12.2,3.1c1,0.9,1.7,1.9,2.4,3l8.6,15.7l10.1-2.6l0-16.6
	l8.1,14.5l10.2-2.6l0-17.2c0-1,0.1-1.9,0.2-2.6c0.1-0.6,0.4-1.4,0.8-2.1l-6.2,1.6c0.2,0.2,0.4,0.6,0.6,1c0.2,0.4,0.3,0.8,0.4,1.1
	c0.1,0.5,0.2,0.9,0.2,1.5c0,0.5,0.1,1,0.1,1.4l0.1,7.9l-6.4-11.7 M414.8,499.6c0.4,0.7,0.9,1.4,1.4,1.8c0.5,0.5,1.1,0.9,1.8,1.2
	l-11.2,6.8c0-0.7,0-1.4-0.3-2.1c-0.2-0.8-0.5-1.4-0.9-2.1l-10.3-17c-0.4-0.7-0.9-1.4-1.4-1.8c-0.5-0.5-1.1-0.9-1.8-1.2l19.9-12.1
	c2.1-1.2,3.8-1.9,5.4-1.9c1.5,0,2.9,1,4.1,3l3.3,5.4c1.2,1.9,1.4,3.6,0.7,5c-0.7,1.4-2.1,2.6-4.1,3.9l-9.8,5.9 M413.9,487.8
	c1.1-0.6,1.6-1.2,1.6-1.8c0-0.5-0.3-1.4-1-2.4l-1.5-2.5c-0.5-0.9-0.9-1.3-1.4-1.5c-0.4-0.1-1,0-1.8,0.4l-5.1,3.1l4.5,7.4
	L413.9,487.8z M430.9,467.6l-7.7,6.6c0.7,0.2,1.2,0.5,1.5,0.8c0.3,0.3,0.7,0.6,1,0.8c0.4,0.4,0.7,0.9,1,1.2l0.6,0.6l6.8,7.9l0.3,0.4
	c0.7,0.8,1.2,1.5,1.7,2.1c0.4,0.6,0.7,1.4,0.8,2.1l9-7.8c-0.8-0.3-1.5-0.7-2-1.2c-0.5-0.5-1.2-1.2-2.1-2.2l-4.5-5.2
	c-0.7-0.8-1-1.6-0.8-2.4c0.1-0.8,0.6-1.5,1.4-2.2l1.6-1.4c0.7-0.6,1.4-1.1,2-1.4c0.6-0.4,1.3-0.5,2-0.4l-4.5-5.2l-3.9,3.4
	c-1.2,1-1.9,1.9-2.2,2.8c-0.3,0.9-0.2,1.9,0.4,3.3 M445.9,449.9l-7,7.5l-3.9-3.6l7-7.5 M458.9,461.9c0.4,0.4,0.8,0.8,1.2,1.1
	c0.4,0.4,0.8,0.6,1.2,0.9c0.4,0.3,0.7,0.4,1,0.6c0.2,0.1,0.6,0.1,1.1,0.3l-8.1,8.8c-0.2-0.7-0.6-1.4-1.1-1.9
	c-0.5-0.6-1.1-1.2-1.9-1.9l-0.3-0.4l-7.6-7l-0.7-0.6c-0.4-0.4-0.8-0.7-1.2-1.1c-0.4-0.2-0.7-0.4-1.1-0.7c-0.4-0.2-0.9-0.4-1.6-0.6
	l7.5-8.2L458.9,461.9z M463.2,430.3l-9.1,12.7c-1.2,1.6-1.8,3.3-1.8,4.9c0,1.6,0.7,3,2.3,4.1l7.7,5.5c1.1,0.8,2.3,1.1,3.6,1.1
	c1.3-0.1,2.5-0.6,3.5-1.4c0.3-0.4,0.7-0.7,1-1.1c0.4-0.4,0.7-0.8,0.9-1.1l9-12.4l-3.7-3.6c-0.1,0.9-0.2,1.6-0.5,2.2
	c-0.3,0.6-0.6,1.4-1.2,2l-3.4,4.8c-0.6,0.8-1.1,1.3-1.6,1.5c-0.5,0.3-1.2,0.1-1.9-0.4l-6.8-4.9c-0.8-0.6-1.2-1.1-1.2-1.7
	s0.3-1.2,0.9-2.1l3.6-5c0.5-0.7,1-1.3,1.5-1.7c0.5-0.4,1.1-0.8,1.8-1 M480.3,424.8l1.6,0.7c1,0.6,1.8,0.6,2.3,0.4
	c0.5-0.2,1-0.9,1.6-2l4.1-8.3c0.4-0.9,0.7-1.6,0.9-2.3c0.2-0.7,0.3-1.4,0.2-2.2l4.1,2.9l-8.3,16.7c-1.2,2.4-2.5,3.9-4,4.6
	c-1.5,0.6-3.4,0.4-5.8-0.8l-6-3c-2.3-1.1-3.6-2.4-4.1-3.9c-0.5-1.5-0.2-3.4,0.9-5.6l5.7-11.5c1.2-2.4,2.5-3.9,3.9-4.5
	c1.4-0.6,3.3-0.3,5.7,0.9l4.9,2.4 M477.9,415.6c-0.9-0.4-1.5-0.6-1.9-0.4c-0.4,0.1-0.7,0.4-0.9,0.9l-1.8,3.6
	c-0.3,0.5-0.3,0.9-0.1,1.3c0.2,0.4,0.6,0.6,1.2,1l2.2,1.1l3.2-6.4L477.9,415.6z M484.5,377.5l-4.4,15.5c-0.7,2.4-0.9,4.5-0.6,6.2
	c0.3,1.7,1.6,2.9,3.8,3.5l3.2,0.9c3.5,1,5.8-0.2,6.8-3.7l2.5-8.7c0.1-0.4,0.3-0.8,0.5-1c0.2-0.3,0.6-0.4,1-0.2
	c0.5,0.1,0.8,0.4,0.8,0.8c0,0.4,0,0.8-0.2,1.4l-2.5,8.6c-0.4,1.3-0.7,2.2-1.1,2.9c-0.4,0.6-1,1.4-1.9,2.4l5.4,0.6l4.9-17.2
	c0.6-2.2,0.7-4.1,0.1-5.7c-0.6-1.6-1.9-2.6-4-3.3l-2.9-0.8c-2-0.6-3.6-0.5-4.7,0.2c-1.2,0.8-2,2.1-2.6,4.1l-2.2,7.7l-0.1,0.5
	c-0.1,0.4-0.3,0.6-0.5,0.8c-0.2,0.1-0.5,0.2-0.8,0.1c-0.4-0.1-0.6-0.3-0.6-0.6c0-0.3,0-0.6,0.1-1.1l0.1-0.4l2.4-8.4
	c0.3-1.1,0.7-2.1,1-2.7c0.3-0.6,0.9-1.2,1.7-1.9 M407.3,355.8c1.8-1.9,3.3-4.2,4.3-6.6c1.1-2.4,1.9-4.8,2.3-7.4
	c0.4-2.6,0.4-5.3-0.4-7.9c-0.4-1.3-0.9-2.6-1.7-3.8c-0.8-1.1-1.8-2.2-3.1-3c-0.3-0.1-0.7-0.4-1-0.5c-0.4-0.1-0.8-0.3-1.2-0.4
	c-0.8-0.1-1.7,0-2.4,0.2c-1.5,0.4-2.7,1.2-3.7,2.1c-2.1,1.8-3.7,3.7-5.2,5.7c-1.6,2-3,4.1-4.5,6.1c-1.5,2-2.9,4-4.5,5.8
	c-0.8,0.9-1.6,1.7-2.5,2.4c-0.4,0.4-0.9,0.6-1.3,0.9c-0.4,0.2-1.1,0.4-1.6,0.6c-4.6,1.7-9.6,3.1-14,6c-1.1,0.7-2.1,1.6-3,2.5
	c-4.3,2.1-10.4,5.6-13,7.1c-1.6-4.9-5.2-18.7-5.8-21.2c4.7-15.5,9.3-26.7,10.6-29.6c2.3,0.1,3.7,0.3,3.7,0.3c0.6,0,1.1-0.3,1.3-0.9
	c2.7-9.2,6.3-15.8,9.4-20.2c4.2,6.2,6.6,16.5,6.6,16.6c0.1,0.6,0.6,0.9,1.2,0.9l8.6,0.1c0.5,0,1-0.3,1.2-0.8
	c0.5-1.2,1.7-4.9,2.6-7.6c2,4.2,4.8,10.7,4.9,10.9c0.1,0.1,0.2,0.4,0.4,0.5l9.6,6.7c0.1,0,0.1,0.1,0.2,0.1c0,0,0.1,0.1,0.1,0.1
	c0.1,0,0.3,0.1,0.4,0.1c0,0,0.1,0,0.2,0l5.7-0.8c0.6-0.1,1.1-0.6,1.1-1.3c0-0.1-0.3-5.2-2.2-12.7c0-0.1,0-0.3-0.1-0.4
	c-0.1-0.2-0.2-0.5-0.3-0.7c-3.9-14.9-13.9-38.3-39.1-52.6c-1.5-0.9-3-1.6-4.5-2.3c5.6-1.4,11.8-6,16.2-12.9c3.4-5.2,5.3-10.8,5.5-16
	c0.2-5.4-1.6-9.5-5-11.7c-6.8-4.4-18,0.9-25,11.9c-3.3,5.2-5.3,10.8-5.5,16c-0.1,3.4,0.5,6.2,1.8,8.4c-6.8-1.9-13.9-3.1-20.5-3.8
	c4.5-2.9,7.5-9.9,7.2-17.8c-0.4-10.5-6.3-18.8-13.1-18.6c-6.9,0.3-12.2,8.9-11.8,19.5c0.2,7,3,13.1,6.9,16.2
	c-7.2-0.2-13.4,0-17.4,0.3c-0.1,0-0.1,0-0.1,0c0,0,0,0-0.1,0c-3,0.2-4.8,0.4-4.9,0.4c-0.6,0.1-1,0.6-1.1,1.1l-0.1,1.1
	c-3.1-5.4-7.5-8.3-10.2-9.7c-1.3-0.6-2.7-1.1-4.2-1.2l-17-1.6c-6-1-12.2,1.6-17.5,7.2c-5.2,5.6-8.9,13.4-10.4,22.3
	c-1.5,8.8-0.7,17.5,2.3,24.5c3.1,7.2,8.1,11.7,14.1,12.7c0.4,0.1,0.8,0.1,1.3,0.1c0,0,0,0,0,0h0c0,0,0.1,0,0.1,0l18,1.4
	c0.4,0,0.9,0.1,1.3,0.1c3.3,0,6.6-1,9.3-2.7c2.2-1.4,4.6-3.6,7-6.9l0.5,0.1l-0.9,6.9c-0.1,0.5,0.2,1,0.7,1.2l2.5,1.3
	c-0.7,4.7-3.5,17.3-7,32.2c-2.7,2.1-20.7,15.4-32.8,17.1c-0.5,0.1-0.9,0.4-1,0.9c-0.1,0.2-1.2,5,1.7,7.6c0.8,0.7,2.3,1.9,4,3.4
	c3.4,2.8,8.5,6.9,10,8.7c0.1,0.8,0.5,2.6,1.1,4.1c0.2,0.4,0.4,0.9,0.6,1.3c0.9,1.8,1.3,2.7,0.5,3.6c-0.3,0.3-0.4,0.4-1.6-0.3
	c-0.9-0.5-2.3-1.3-3.6-0.4c-0.3,0.3-0.7,0.7-0.7,1.6c-0.1,2.8,4.3,10,6.8,12.7c-0.9,3.4-1.7,6.2-2.2,8c-0.4,1.4-0.9,3-1.5,4.8
	c-6,19-18.6,58.7-2,74.6c5.6,5.4,12.1,8,19.6,8c6.5,0,13.7-1.9,21.7-5.9c0,0,0,0,0,0c1.2-0.6,2.5-1.2,3.7-1.9
	c1.5-0.9,3.1-1.6,4.7-2.4c3.4-1.6,6.5-3.2,9.1-5.3c9.6-7.7,8.5-17.4,6.8-32c-0.9-7.9-2.1-17.8-1.7-29.8c0.5-14.5,2.8-29,5.7-42.3
	c1.4,2.2,3.2,5.2,3.5,7.4l0.2,1.1c0.4,2.6,0.7,4.5,2.1,5.5c0.3,0.2,0.7,0.4,1.1,0.5c-0.2,1.2-0.2,2.5,0,3.8c0.2,1.4,0.6,2.8,1.1,4.1
	c0.5,1.2,1.1,2.2,1.9,3.3c-0.1,2,0.1,3.9,0.4,5.8c0.4,2.1,1.1,4.1,2,5.9c0.9,1.9,2.2,3.6,3.6,5.2c1.5,1.5,3.1,2.7,4.7,4
	c1.6,1.1,3.4,2.3,5.2,3.2c1.9,0.9,3.9,1.6,6.2,1.6c1.1,0,2.3-0.2,3.4-0.7c1.1-0.6,1.9-1.3,2.7-2c1.3-1.3,2.3-2.8,3.1-4.5
	c1.8,0.3,3.5,0.4,5.3,0.4c2.1,0,4.3-0.1,6.5-1.1c0.5-0.3,1.1-0.6,1.5-1c0.5-0.4,0.9-0.8,1.2-1.2c0.8-0.9,1.4-1.8,1.8-2.9
	c0.4-1.1,0.6-2.2,0.7-3.4c0-0.6,0-1.2-0.1-1.8c0.3-0.1,0.6-0.1,0.9-0.1c6.3-0.4,10.5-2.1,12.9-5.2c2.2-2.7,2.9-6.4,2.1-11.3
	c-1.2-7.9-13.3-19.5-17.2-23c1.9-0.5,3.8-1.2,5.6-2.1C403.3,359.2,405.5,357.7,407.3,355.8 M281.4,365.9c-2.9-4-6.5-8.4-8.3-10.5
	c3.4-1.4,9.1-4.1,12.2-5.7C284,355.2,282.7,360.7,281.4,365.9"/>
<path class="st5" d="M272.4,290.1c4.9-5.2,8.4-12.7,9.8-21.1c1.5-8.4,0.7-16.6-2.1-23.1c-2.7-6.4-7.1-10.4-12.3-11.3
	c-0.7-0.1-1.5-0.2-2.2-0.2c-4.5,0-9.1,2.3-13.2,6.7c-4.9,5.2-8.4,12.7-9.8,21.1c-1.5,8.4-0.7,16.6,2.1,23.1
	c2.7,6.4,7.1,10.4,12.3,11.3C262.2,297.5,267.6,295.2,272.4,290.1"/>
<path class="st4" d="M340.6,257.6c5.1-0.3,36.4-1,57,24.6c-6-9.8-14.8-19.7-27.8-27c-2.9-1.6-6.1-3.1-9.3-4.3
	c-0.6-0.1-1.2-0.4-1.8-0.6c-13.2-4.6-27.9-5.9-39.1-6C328.9,246.7,336.1,251.3,340.6,257.6"/>
<path class="st4" d="M309.8,291.3c2.7-0.6,9.4-3.2,12.2-15.5c1.4-6.4,1-11.5-1.3-15.5c-1.5-2.4-4-4.1-7-4.6l-10.9-1.8
	c0.7,4.3,0.7,9.3-0.5,15.4c-1.8,8.7-4.3,14.9-7.1,19.4l12.6,2.6C308.4,291.5,309.1,291.5,309.8,291.3"/>
<path class="st4" d="M288.2,237.2c-1-0.5-2.1-0.9-3.3-0.9l-9.7-0.9c2.9,2.2,5.4,5.4,7.1,9.6c3,7,3.8,15.7,2.3,24.5
	c-1.5,8.9-5.2,16.7-10.4,22.3c-2.3,2.5-4.8,4.4-7.4,5.6l9.4,0.7c3.2,0.3,6.5-0.6,9.1-2.3c2.1-1.4,4.5-3.4,6.8-6.8
	c0-0.1,0-0.1,0.1-0.1c3-4.3,5.8-10.7,7.7-20C304.1,248,293.1,239.8,288.2,237.2"/>
<path class="st5" d="M338.6,259c-9.8-13.8-30.9-14.4-32.8-14.4c-1.7,0.1-3.1,0.2-3.9,0.3l-0.3,4.5c0.2,0.7,0.4,1.4,0.6,2.1l11.9,1.9
	c3.7,0.6,6.8,2.7,8.7,5.8c2.7,4.4,3.2,10.2,1.6,17.2c-3.1,13.5-10.8,16.6-14,17.2c-0.5,0.1-1,0.2-1.5,0.2s-1.1-0.1-1.6-0.2
	l-10.7-2.2l-0.8,5.9l23.3,11.8"/>
<path class="st4" d="M367.8,263.9c-12.7-4.4-24-4.1-26.9-3.9l-19.5,49.8c1.8,0.1,4.6,0.4,7.9,0.6c7.9-2.6,27.9-10,31.1-20.9
	c2.8-9.4-5.6-12.4-5.6-12.4s11.1-0.6,9.2,9.1c-1.8,9.2-13.1,21.7-16.7,25.5c5.1,0.4,9.4,0.7,11.2,0.9c6.4-20.7,16.6-28,17.1-28.3
	c0.4-0.3,0.8-0.3,1.2-0.1c23.4,11.5,28.8,29.9,29.8,34.8l3.4-0.5c-0.2-1.9-0.8-6.2-2.2-11.9C400.7,285.2,387.3,270.9,367.8,263.9"/>
<path class="st7" d="M359.6,233c4.1-6.2,10.4-9.4,14.2-6.9c3.8,2.4,3.5,9.5-0.5,15.8c-1.9,2.9-4.3,5.2-6.7,6.5
	c4.8-1.4,10.1-5.7,14.1-11.8c3.1-4.9,4.9-10.1,5.1-14.7c0.2-4.5-1.2-7.9-3.8-9.6c-1.3-0.8-2.7-1.2-4.3-1.2
	c-5.5,0-12.5,4.7-17.4,12.3c-3.1,4.8-4.9,10.1-5.1,14.7c-0.1,2.9,0.4,5.3,1.5,7.2C355.8,241.9,356.8,237.3,359.6,233"/>
<path class="st7" d="M327,241.3c-2.4-1.6-4.1-5.3-4.2-9.6c-0.2-6,2.7-10.9,6.5-11.1c3.8-0.1,7,4.6,7.2,10.6c0.1,2.6-0.4,5.1-1.4,7
	c2.4-3.1,3.8-8,3.6-13.4c-0.3-9-5-16.2-10.4-16.2c-0.1,0-0.1,0-0.2,0c-5.5,0.2-9.8,7.8-9.5,16.9C319,233.3,322.5,239.8,327,241.3"/>
<path class="st0" d="M280.6,369c-4-5.8-10.4-13.2-10.5-13.3c-0.3-0.4-0.4-0.7-0.3-1.1c0.1-0.4,0.4-0.7,0.8-0.8
	c3.4-1.1,13-5.9,15.4-7c0.8-3.5,1.7-7,2.5-10.4c-5.9,4.2-20,13.8-30.8,15.7c-0.2,1.3-0.1,3.4,1.1,4.4c0.7,0.6,2.2,1.9,3.9,3.3
	c4.1,3.4,9.2,7.5,10.6,9.4c0.1,0.1,0.2,0.4,0.2,0.6c0,0,0.3,2.1,1,3.9c0.2,0.4,0.3,0.7,0.5,1.1c0.9,1.6,2.1,4.1,0.1,6.4
	c-1.7,1.9-3.6,0.8-4.6,0.1c-0.2-0.1-0.5-0.2-0.7-0.4c0.3,1.8,3,6.7,5.1,9.4C276.7,384.4,278.6,377,280.6,369"/>
<path class="st7" d="M385.9,362L385.9,362c2.5-0.7,4.8-0.9,7.2-1.4c2.4-0.5,4.6-1.3,6.7-2.4c2.1-1.1,4.1-2.4,5.6-4.1
	c1.6-1.8,2.9-3.7,3.8-5.9c1-2.2,1.7-4.5,2.1-6.8c0.4-2.4,0.3-4.7-0.4-6.9c-0.6-2.1-1.9-4.1-3.6-5.2l-0.7-0.4c-0.2,0-0.4-0.1-0.6-0.1
	c-0.4-0.1-0.8,0-1.3,0.1c-0.9,0.2-1.8,0.9-2.7,1.6c-1.8,1.5-3.3,3.4-4.8,5.3c-1.5,1.9-2.9,3.9-4.4,6c-1.5,2-3,4-4.7,5.9
	c-0.9,1-1.8,1.9-2.9,2.8c-0.5,0.4-1.1,0.9-1.8,1.2c-0.7,0.3-1.2,0.5-1.8,0.7c-4.8,1.7-9.5,3-13.5,5.6c-2,1.3-3.7,2.9-4.9,4.9
	c-0.9,1.4-1.6,3-2,4.6c0.2-0.1,0.5-0.1,0.7-0.2c1-0.2,1.9-0.4,2.9-0.5c0.2,0,0.4,0.1,0.4,0.4c0,0.2-0.1,0.4-0.2,0.4
	c-0.9,0.4-1.7,0.8-2.6,1.2c-0.8,0.5-1.7,0.9-2.4,1.4c0,0,0,0,0,0h0c-2.2,1.1-4.4,2.5-6.4,4.1c-2,1.6-3.6,3.4-4.8,5.6
	c-1.1,2.1-1.6,4.5-1.2,6.9c0.2,1.7,0.8,3.4,1.7,4.9c0.1-0.1,0.2-0.3,0.3-0.5c0.5-0.7,1.2-1.5,2-2.1c0.8-0.6,1.7-1.1,2.7-1.3
	c0.7-0.1,1.4-0.1,2.1-0.1c0.1-0.3,0.2-0.6,0.3-1c0.7-2,1.8-3.9,3.2-5.4c1.2-1.3,2.5-2.4,4-3.3c0-3.6,0.5-7.6,2.2-10.4
	c1.6-2.8,4.1-4.3,7.1-4.4h0.1c8.5,0,11.3,8.3,11.8,13.2c8.4,1.4,13.2,5.7,13.2,5.7c-8.4-5.1-16.4-3.4-16.4-3.4
	c-0.6-0.8-2.4-2.6-2.4-2.6c1.1,0,2.2,0.1,3.2,0.1c-0.4-2.9-2-10.5-9.3-10.5h-0.1c-2.2,0-3.8,1.1-5,3.1c-2.9,5.2-1.9,15.3-0.1,18.3
	c2.2,3.6,15.5,11.9,26.7,12.4c0.2-0.1,0.3-0.1,0.5,0c0.7,0,1.3,0,2-0.1c5.5-0.4,9.2-1.8,11.2-4.3c1.7-2.1,2.3-5.2,1.6-9.4
	c-1.3-8.3-17.5-22.5-17.6-22.7c-0.1,0-0.1-0.1-0.1-0.1c-2.2,0.3-4.4,0.4-6.5-0.4c-0.2-0.1-0.3-0.3-0.2-0.5
	C385.7,362.1,385.8,362,385.9,362 M366.1,388.5c-1-1.6-1.8-5-2.1-8.7c-2.7,1.9-4.9,4.5-5.8,7.6c-1.1,3.6,0,7.5,2,10.8
	c1,1.6,2.3,3.1,3.6,4.5c1.4,1.4,2.9,2.6,4.5,3.6c3.3,2.1,6.9,3.6,10.7,4.3c1.9,0.4,3.9,0.5,5.8,0.5c1.9,0,3.9-0.2,5.4-0.9
	c0.4-0.2,0.7-0.4,1-0.6c0.4-0.3,0.7-0.6,1-0.9c0.6-0.6,1.1-1.4,1.4-2.2c0.3-0.8,0.5-1.6,0.5-2.6c0-0.6,0-1.2-0.1-1.8
	C382.5,401.3,368.9,393.1,366.1,388.5 M362.5,404.1c-1.4-1.5-2.7-3.1-3.8-4.9c-1-1.9-1.9-3.8-2.3-5.9c-0.3-1.3-0.3-2.6-0.1-4
	c-0.5,0-1,0.1-1.5,0.2c-0.7,0.3-1.4,0.6-1.9,1.1c-0.5,0.6-1,1.1-1.3,1.9c-0.3,0.6-0.6,1.4-0.8,2c-0.2,3.6,0.5,7.5,2.2,10.8
	c0.8,1.6,1.9,3.2,3.2,4.6c1.3,1.3,2.8,2.5,4.4,3.6c1.6,1.1,3.2,2.2,4.9,3c1.7,0.9,3.5,1.5,5.2,1.4c0.8,0,1.6-0.1,2.3-0.5
	c0.7-0.3,1.4-0.9,2.1-1.6c0.9-0.9,1.8-2,2.4-3.2c-3.6-0.9-7-2.4-10-4.5C365.6,406.9,364,405.6,362.5,404.1"/>
<path class="st0" d="M289.3,446.9c5.9-54.3,27.6-123.8,31-134.8c-0.3,0-0.6,0-0.8,0c0,0-0.1-0.1-0.1-0.1c-0.1,0-0.2,0-0.2,0
	c0-0.1,0-0.1,0-0.1c0,0,0,0-0.1,0l-20.4-10.4c-2.4,15.2-19.5,84.8-24.2,100.1c-0.4,1.4-0.9,3-1.5,4.8c-5.9,18.6-18.2,57.3-2.6,72.2
	c8.6,8.2,19.4,9.6,33.4,4c-2.6-0.4-5.5-1.5-8-3.9C289.8,473.1,287.6,462.4,289.3,446.9"/>
<path class="st0" d="M352.3,372.6c2-1.6,4.1-2.9,6.4-4.1c0.4-1.9,1-3.8,2-5.5c-4.8,2.6-9.8,5.4-9.8,5.4c-0.2,0.1-0.4,0.2-0.6,0.2
	c-0.1,0-0.3-0.1-0.4-0.1c-0.3-0.1-0.6-0.4-0.7-0.7c-1-2.4-3.8-12.9-5.4-18.9c-1.5,5.2-3.1,10.9-4.4,17c1.2,1.5,4.6,6.4,5.2,10.1
	l0.2,1.1c0.3,1.9,0.6,3.6,1.1,4c0.1,0,0.2,0,0.3,0.1c0.2-0.8,0.6-1.5,0.9-2.2C348.2,376.4,350.1,374.3,352.3,372.6"/>
<path class="st0" d="M342.7,343.7c4.4-14.5,8.7-25.3,10.3-29.1c-8.4-0.6-23.1-1.7-30.2-2.2c-2.8,8.7-25.1,79.7-31.1,134.8
	c-1.6,14.4,0.4,24.8,5.7,29.8c4,3.8,8.9,3.8,11.7,3.4c1.2-0.6,2.4-1.1,3.6-1.9c1.6-0.9,3.2-1.6,4.8-2.4c3.2-1.6,6.3-3.1,8.6-4.9
	c8.6-6.9,7.6-15.5,5.9-29.8c-0.9-8-2.1-18-1.7-30.1c0.5-15.6,3.1-31.1,6.3-45.2c0-0.1,0-0.2,0.1-0.3c1.8-7.7,3.8-15,5.8-21.5
	C342.5,344.1,342.6,343.8,342.7,343.7"/>
<path class="st5" d="M356.4,393.3c-0.3-1.3-0.3-2.6-0.1-4c-0.5,0-1,0.1-1.5,0.2c-0.7,0.3-1.4,0.6-1.9,1.1c-0.5,0.6-1,1.1-1.3,1.9
	c-0.3,0.6-0.6,1.4-0.8,2c-0.2,3.6,0.5,7.5,2.2,10.8c0.8,1.6,1.9,3.2,3.2,4.6c0,0,0,0,0,0c2.3-2.3,2.1-8.5,1.7-12.4
	C357.2,396.2,356.7,394.8,356.4,393.3 M373.4,365.8C373.4,365.8,373.4,365.8,373.4,365.8h-0.1c-2.2,0-3.8,1.1-5,3.1
	c-2.9,5.2-1.9,15.3-0.1,18.3c0.5,0.8,1.5,1.9,3,3C379.9,382.9,374.9,369.3,373.4,365.8 M366.1,388.5c-1-1.6-1.8-5-2.1-8.7
	c-2.7,1.9-4.9,4.5-5.8,7.6c-1.1,3.6,0,7.5,2,10.8c1,1.6,2.3,3.1,3.6,4.5c0.2,0.2,0.4,0.4,0.6,0.6c3.7-2.7,3.4-9.1,2.8-13.2
	C366.8,389.5,366.4,389,366.1,388.5"/>
<path class="st5" d="M387.7,377.2c1-3.3,2.8-6.7,2.8-6.7c-3.8,1.9-5.5,6.2-5.5,6.2C386,376.7,386.9,377,387.7,377.2"/>
<path class="st3" d="M295.5,161.2l-0.9-4.3c0.4-0.6,0.7-1.2,1-1.8c0.2-0.4,0.2-1.1-0.2-1.5c-0.3-0.4-0.9-0.6-1.6-0.5l-0.9-4.3
	c0.4-0.7,0.8-1.4,1.1-2.2c0.2-0.4,0.2-1.1-0.2-1.5c-0.2-0.2-0.3-0.3-0.5-0.4c0.6-0.4,1.2-0.8,1.8-1.2c3.5-2.7,5.1-5.7,4.5-8.5
	c-0.6-2.8-3.3-4.9-7.6-5.9c-4.1-1-9.2-0.9-14.4,0.2c-11.2,2.4-19,8.6-17.8,14.2c0.9,4,6.2,6.5,13.3,6.6l0.5,2.9
	c-0.7,0.5-1.7,1.7-1.7,3.7c0,1.8,1.5,2.7,3,3l0.2,1c-0.7,0.5-1.8,1.6-1.9,3.6c-0.1,1.9,1.6,2.8,3.2,3.2l0.3,1.5
	c-0.7,0.5-1.7,1.6-1.8,3.5c-0.1,2.5,2.8,3.3,4.5,3.3l0.1,0l0.1,0c0,0,0,0,0.1,0c0.7,0.3,2.9,1,5.5,1c1.2,0,2.5-0.2,3.8-0.6
	c3-0.9,5.3-3.1,6.7-4.7c1-1.2,1.5-2.9,1.1-4.4l-0.4-2c0.4-0.6,0.7-1.2,1-1.8c0.2-0.4,0.2-1.1-0.2-1.5
	C296.7,161.2,296.2,161.1,295.5,161.2"/>
<polyline class="st5" points="270.8,141 273.4,141.6 275.7,140.2 275.2,137.1 "/>
<path class="st4" d="M279.1,138l-0.8-3.4l-4.6-0.4l-1.2,0.7l3.2,0.4c0,0,0,0,0,0c0.1,0,0.2,0.1,0.3,0.1c0,0,0,0,0,0
	c0.1,0.1,0.1,0.1,0.1,0.2c0,0,0,0,0,0c0,0,0,0,0,0c0,0,0,0,0,0.1l0.5,3.7"/>
<path class="st5" d="M283.1,138.2l-0.6-3.8c0,0,0,0,0,0c0,0,0,0,0,0c0,0,0,0,0,0c0-0.1,0-0.2,0-0.2c0,0,0,0,0-0.1
	c0-0.1,0.1-0.1,0.2-0.2c0,0,0,0,0,0l2.3-1.5l-1.6-0.1l-3.8,2.2l0.8,3.4"/>
<polyline class="st4" points="284.3,138.5 286.8,138.9 288.6,137.2 283.8,135.3 "/>
<path class="st4" d="M281.3,147.3c5-1.1,9.4-3,12.5-5.4c2.9-2.2,4.3-4.7,3.9-6.7c-0.4-2-2.7-3.7-6.3-4.5c-1.8-0.4-3.7-0.6-5.9-0.6
	c-2.5,0-5.1,0.3-7.7,0.9c-9.8,2.1-17.3,7.6-16.4,12.1C262.4,147.5,271.5,149.4,281.3,147.3 M273.5,142.9c0,0-0.1,0-0.1,0l-4-0.9
	c-0.2-0.1-0.4-0.2-0.5-0.4s0-0.5,0.2-0.6l5.2-4.6l-3.5-0.4c-0.3,0-0.5-0.2-0.5-0.5c-0.1-0.3,0.1-0.5,0.3-0.7l2.8-1.8
	c0.1-0.1,0.2-0.1,0.4-0.1l5,0.4l4.2-2.4c0.1-0.1,0.2-0.1,0.3-0.1l3.5,0.3c0.3,0,0.5,0.2,0.5,0.5c0.1,0.3,0,0.5-0.2,0.7l-2.8,1.9
	l5.6,2.3c0.2,0.1,0.3,0.3,0.4,0.5c0,0.2,0,0.4-0.2,0.6l-2.8,2.5c-0.1,0.1-0.3,0.2-0.5,0.1l-6.9-1.2l-3.3,2.1c0,0,0,0,0,0l-2.8,1.8
	C273.7,142.8,273.6,142.9,273.5,142.9"/>
<path class="st4" d="M278.1,167.4l0.2,0.9c7.8-0.1,13.5-4.2,15.6-6l-0.7-3.5C288.1,165,279.9,167,278.1,167.4"/>
<path class="st5" d="M294.9,163.9c-2.5,2.1-8.6,6.5-17.1,6.3c-0.4,0.2-1.1,0.9-1.2,2.3c0,1.2,2.2,1.4,2.7,1.5
	C280.4,173.7,290.4,171.4,294.9,163.9"/>
<path class="st4" d="M275.2,152.4c6.9-0.3,12-3.8,14.5-5.9c-2.4,1.1-5.1,2-8,2.6c-2.4,0.5-4.7,0.8-6.9,0.9"/>
<path class="st5" d="M293.1,155.7c-2.5,2.1-8.6,6.4-17.1,6.3c-0.3,0.3-1.1,0.9-1.2,2.3c0,1.2,2.2,1.4,2.7,1.5
	C278.6,165.5,288.7,163.2,293.1,155.7"/>
<path class="st4" d="M294.9,167c-3.5,4.3-8.5,6.6-11.9,7.7c1.5,0.2,3.4,0.3,5.3-0.3c2.6-0.8,4.6-2.7,5.9-4.2
	c0.7-0.8,0.9-1.9,0.7-2.9"/>
<path class="st4" d="M276.6,159.7l0.1,0.4c7.7-0.1,13.3-4.2,15.4-6l-0.7-3.3C286.3,157.3,277.6,159.5,276.6,159.7"/>
<path class="st5" d="M291.5,147.3c-2.4,2.2-8.4,6.7-16.9,6.9c-0.3,0.3-1.1,1-1.1,2.3c0,1.2,2.2,1.3,2.7,1.4
	C277.4,157.6,287.4,155,291.5,147.3"/>
<path class="st5" d="M296.8,133.6c-0.7,2.5-3.8,7.5-16.5,10.1c-10.3,2.1-16-0.1-18.6-3c-0.3,0.8-0.4,1.6-0.2,2.3
	c1,4.4,10.1,6.4,19.9,4.3c4.9-1.1,9.4-3,12.5-5.4c2.9-2.2,4.3-4.7,3.9-6.7C297.6,134.7,297.2,134.1,296.8,133.6"/>
<path class="st3" d="M334.1,356.3c1.1-3.6,1.6-5.4,2.8-8.9c-0.5,0.1-0.9,0.1-1.3,0.1c-0.4,0-0.9-0.1-1.4-0.3
	c-4.7-1.6-7-2.6-11.7-4.3c-0.4-0.1-0.9-0.4-1.3-0.6c-0.4-0.3-0.7-0.6-1-1c-0.5,1.8-0.8,2.6-1.2,4.4c0.4-0.1,0.9-0.2,1.3-0.1
	c0.4,0,0.9,0.1,1.4,0.3c4,1.5,6,2.3,10.1,3.7c-5.6,0-8.2-0.1-13.8-0.1c-0.5,1.9-0.8,2.9-1.3,4.8c4.6,3.6,6.7,5.4,11.1,8.8
	c-3.9-1.3-5.9-2-9.9-3.4c-0.4-0.1-0.8-0.4-1.2-0.6c-0.4-0.3-0.7-0.6-1-1c-0.8,3.3-1.2,4.9-2,8.2c0.4-0.1,0.8-0.2,1.3-0.1
	c0.4,0,0.9,0.1,1.4,0.2c4.6,1.6,6.8,2.4,11.3,3.8c0.5,0.1,0.9,0.3,1.3,0.6c0.4,0.2,0.7,0.5,1,0.9c0.9-3.5,1.3-5.2,2.3-8.7
	c-3.4-2.5-5-3.8-8.3-6.5C327.9,356.4,329.9,356.4,334.1,356.3 M325.9,375.2c-4.5-1.4-6.7-2.1-11.3-3.6c-0.4-0.1-0.8-0.4-1.3-0.6
	c-0.4-0.3-0.8-0.6-1-0.9c-0.8,3.3-1.1,5-1.9,8.3c0.4-0.1,0.9-0.2,1.3-0.2c0.4,0,0.9,0.1,1.4,0.2c1.8,0.6,2.7,0.9,4.5,1.4
	c-0.2,0.8-0.3,1.2-0.4,2.1c-3,0.4-4.5,0.6-7.7,1c-0.7,3.1-1,4.7-1.6,7.9c0.5-0.1,0.9-0.3,1.3-0.4c0.4-0.1,0.8-0.2,1.3-0.3
	c2.1-0.5,3.2-0.7,5.3-1.1c0,0.2-0.1,0.3-0.1,0.4c-0.2,0.8,0,1.4,0.3,1.9c0.4,0.4,0.9,0.8,1.8,1c1.4,0.4,2.1,0.5,3.5,0.9
	c1.3,0.4,2.3,0.2,2.9-0.5c0.6-0.6,1.1-1.7,1.3-3.1c1.1-5.6,1.7-8.4,3-14c-0.4,0.1-0.8,0.2-1.2,0.2
	C326.8,375.5,326.4,375.4,325.9,375.2 M323.4,385.2c-0.1,0.6-0.3,1.1-0.5,1.1c-0.2,0.1-0.6,0.1-1.3-0.1c-0.4-0.1-0.6-0.2-1-0.3
	c-0.6-0.1-0.9-0.4-1.1-0.6c-0.2-0.2-0.2-0.6,0-1.2c0.3-1.5,0.5-2.2,0.8-3.7c1.6,0.5,2.3,0.7,3.9,1.2
	C323.9,383,323.7,383.8,323.4,385.2 M320.3,404.4c-4.6-1-6.9-1.6-11.8-2.6c-0.5-0.1-0.9-0.3-1.3-0.5c-0.4-0.2-0.8-0.5-1.1-0.9
	c-1,6.2-1.4,9.2-2.2,15.4c-0.2,1.6,0.1,3,1,3.9c0.9,0.9,2.1,1.5,3.7,1.7c3,0.4,4.5,0.7,7.4,1.1c1.5,0.3,2.7,0.1,3.6-0.6
	c0.9-0.6,1.5-1.6,1.6-3.2c0.6-5.8,0.9-8.7,1.8-14.4c-0.4,0.2-0.8,0.3-1.2,0.4C321.3,404.6,320.8,404.5,320.3,404.4 M318.8,414.3
	c-0.1,0.8-0.3,1.2-0.6,1.4c-0.3,0.1-0.8,0.1-1.6,0.1c-2.9-0.6-4.4-0.8-7.4-1.4c-0.8-0.1-1.3-0.4-1.6-0.6c-0.3-0.3-0.4-0.8-0.3-1.6
	c0.2-1.4,0.3-2,0.5-3.4c4.7,0.9,6.9,1.4,11.3,2.2C319,412.4,318.9,413,318.8,414.3 M318.7,430.8c-0.4,0.1-0.9,0.1-1.4,0.1
	c-4.8-0.1-7.1-0.1-12.3-0.2c-0.5,0-1-0.1-1.5-0.2c-0.5-0.1-0.9-0.4-1.3-0.6c-0.1,3.2-0.1,4.9-0.1,8.1c0.4-0.3,0.9-0.4,1.3-0.6
	c0.4-0.1,1-0.1,1.5-0.1c5.3,0,7.6-0.1,12.4-0.1c0.4,0,0.9,0.1,1.4,0.2c0.5,0.1,0.9,0.3,1.2,0.5c0-3.1-0.1-4.6-0.1-7.6
	C319.5,430.5,319.1,430.7,318.7,430.8 M316.5,443.8c-3.1,2.1-4.6,3.1-7.8,5.3c-1.6,0-2.4,0-4.1,0c-0.5,0-0.9-0.1-1.4-0.2
	c-0.5-0.1-0.9-0.4-1.3-0.6c-0.1,3.6-0.1,5.3-0.1,8.9c0.4-0.3,0.8-0.5,1.3-0.6c0.4-0.1,0.9-0.2,1.5-0.2c1.7,0,2.5-0.1,4.1-0.1
	c3.3,2.1,4.8,3.2,7.9,5.3c0.6,0.4,1,0.7,1.3,0.9c0.3,0.2,0.6,0.6,0.8,0.9c0-2,0-2.9,0.1-4.9c-0.2,0-0.3,0-0.5,0
	c-0.3,0-0.6,0-0.9-0.1c-0.3-0.1-0.6-0.3-0.9-0.4c-1.7-1.2-2.5-1.8-4.2-2.9c1.7-1.3,2.5-1.9,4.2-3.1c0.4-0.2,0.7-0.4,1.1-0.6
	c0.4-0.2,0.8-0.3,1.3-0.3c0.1-3.6,0.1-5.5,0.3-9.1c-0.4,0.3-0.7,0.6-1,0.9C317.8,442.9,317.2,443.3,316.5,443.8 M309.3,398.8
	c1.4,0,2.5-1.1,2.5-2.5c0-1.4-1.1-2.5-2.5-2.5c-1.4,0-2.5,1.1-2.5,2.5C306.8,397.7,307.9,398.8,309.3,398.8 M305.4,427.9
	c1.4,0,2.5-1.1,2.5-2.5s-1.1-2.5-2.5-2.5c-1.4,0-2.5,1.1-2.5,2.5S304,427.9,305.4,427.9 M307.2,443.2c0-1.4-1.1-2.5-2.5-2.5
	c-1.4,0-2.5,1.1-2.5,2.5c0,1.4,1.1,2.5,2.5,2.5C306.1,445.7,307.2,444.6,307.2,443.2 M304.3,459c-1.4,0-2.5,1.1-2.5,2.5
	c0,1.4,1.1,2.5,2.5,2.5c1.4,0,2.5-1.1,2.5-2.5C306.8,460.2,305.7,459,304.3,459"/>
<path class="st8" d="M332.5,357.5c1.1-3.5,1.6-5.3,2.8-8.9c-0.5,0.1-0.9,0.2-1.3,0.2c-0.4-0.1-0.9-0.1-1.4-0.3
	c-4.7-1.6-7-2.6-11.7-4.3c-0.4-0.1-0.9-0.4-1.3-0.6c-0.4-0.3-0.7-0.6-1-1c-0.5,1.8-0.8,2.6-1.2,4.4c0.4-0.1,0.9-0.2,1.3-0.2
	c0.4,0.1,0.9,0.1,1.4,0.4c4,1.5,6,2.3,10.1,3.7c-5.6,0-8.2-0.1-13.8-0.1c-0.5,1.9-0.8,2.9-1.3,4.7c4.6,3.6,6.7,5.4,11.1,8.9
	c-3.9-1.3-5.9-2.1-9.9-3.4c-0.4-0.1-0.8-0.4-1.2-0.6c-0.4-0.3-0.7-0.6-1-0.9c-0.8,3.3-1.2,4.9-2,8.2c0.4-0.1,0.8-0.2,1.3-0.2
	c0.4,0,0.9,0.1,1.4,0.3c4.6,1.5,6.8,2.4,11.3,3.7c0.5,0.1,0.9,0.4,1.3,0.6c0.4,0.2,0.7,0.6,1,0.9c0.9-3.4,1.3-5.2,2.3-8.7
	c-3.4-2.5-5-3.9-8.3-6.5C326.3,357.6,328.3,357.6,332.5,357.5 M324.2,376.5c-4.5-1.4-6.7-2.2-11.3-3.7c-0.4-0.1-0.8-0.4-1.3-0.6
	c-0.4-0.3-0.8-0.6-1-0.9c-0.8,3.3-1.1,4.9-1.9,8.3c0.4-0.1,0.9-0.3,1.3-0.3c0.4,0.1,0.9,0.1,1.4,0.3c1.8,0.6,2.7,0.9,4.5,1.4
	c-0.2,0.9-0.3,1.3-0.4,2.1c-3,0.4-4.5,0.6-7.7,1c-0.7,3.1-1,4.7-1.6,7.9c0.5-0.2,0.9-0.4,1.3-0.4c0.4-0.1,0.8-0.2,1.3-0.4
	c2.1-0.4,3.2-0.6,5.3-1.1c0,0.1-0.1,0.2-0.1,0.4c-0.2,0.8,0,1.4,0.3,1.9c0.4,0.4,0.9,0.8,1.8,1c1.4,0.4,2.1,0.6,3.5,0.9
	c1.3,0.4,2.3,0.1,2.9-0.5c0.6-0.6,1.1-1.7,1.3-3.1c1.1-5.6,1.7-8.4,3-14.1c-0.4,0.1-0.8,0.2-1.2,0.2
	C325.2,376.7,324.7,376.6,324.2,376.5 M321.8,386.4c-0.1,0.7-0.3,1.1-0.5,1.2c-0.2,0.1-0.6,0.1-1.3-0.1c-0.4-0.1-0.6-0.2-1-0.4
	c-0.6-0.1-0.9-0.4-1.1-0.6c-0.2-0.2-0.2-0.6-0.1-1.1c0.3-1.5,0.5-2.2,0.8-3.7c1.6,0.5,2.3,0.7,3.9,1.2
	C322.2,384.3,322,385,321.8,386.4 M318.7,405.7c-4.6-1-6.9-1.6-11.8-2.6c-0.5-0.1-0.9-0.3-1.3-0.5c-0.4-0.3-0.8-0.6-1.1-0.9
	c-1,6.1-1.4,9.2-2.2,15.4c-0.2,1.6,0.1,2.9,1,3.9c0.9,0.9,2.1,1.4,3.7,1.7c3,0.4,4.5,0.6,7.4,1.1c1.5,0.2,2.7,0,3.6-0.6
	c0.9-0.6,1.5-1.6,1.6-3.2c0.6-5.8,0.9-8.7,1.7-14.4c-0.4,0.1-0.8,0.3-1.2,0.3C319.6,405.9,319.2,405.8,318.7,405.7 M317.1,415.6
	c-0.1,0.7-0.3,1.2-0.6,1.4c-0.3,0.1-0.8,0.1-1.6,0c-2.9-0.5-4.4-0.8-7.4-1.3c-0.8-0.1-1.3-0.4-1.6-0.6c-0.3-0.3-0.4-0.8-0.3-1.6
	c0.2-1.3,0.3-2,0.5-3.4c4.7,1,6.9,1.4,11.3,2.3C317.3,413.7,317.3,414.3,317.1,415.6 M317.1,432.1c-0.4,0.1-0.9,0.1-1.4,0.1
	c-4.8,0-7.1-0.1-12.3-0.1c-0.5-0.1-1-0.1-1.5-0.2c-0.5-0.1-0.9-0.4-1.3-0.6c-0.1,3.3-0.1,4.9-0.1,8.2c0.4-0.3,0.9-0.5,1.3-0.6
	c0.5-0.1,1-0.2,1.5-0.2c5.3,0,7.6,0,12.4-0.1c0.4,0,0.9,0.1,1.3,0.1c0.5,0.1,0.9,0.3,1.2,0.5c-0.1-3-0.1-4.5-0.1-7.6
	C317.8,431.8,317.5,432,317.1,432.1 M314.8,445c-3.1,2.1-4.6,3.1-7.8,5.4c-1.6,0-2.4,0-4.1,0c-0.5,0-0.9-0.1-1.4-0.3
	c-0.5-0.1-0.9-0.4-1.3-0.6c-0.1,3.5-0.1,5.3-0.1,8.9c0.4-0.3,0.8-0.5,1.3-0.6c0.4-0.1,0.9-0.1,1.5-0.1c1.7-0.1,2.5-0.1,4.1-0.1
	c3.3,2.1,4.8,3.1,7.9,5.2c0.6,0.4,1,0.7,1.3,1c0.3,0.2,0.6,0.5,0.8,0.9c0-2,0-3,0.1-4.9c-0.2,0-0.3,0-0.5,0c-0.3,0-0.6-0.1-0.9-0.1
	c-0.3-0.1-0.6-0.3-0.9-0.5c-1.7-1.1-2.5-1.7-4.2-2.9c1.7-1.2,2.5-1.9,4.2-3c0.4-0.3,0.7-0.5,1.1-0.7c0.4-0.1,0.8-0.3,1.3-0.3
	c0.1-3.6,0.1-5.4,0.3-9.1c-0.4,0.4-0.7,0.6-1,0.9C316.1,444.2,315.6,444.6,314.8,445 M307.7,400.1c1.4,0,2.5-1.1,2.5-2.5
	c0-1.4-1.1-2.5-2.5-2.5c-1.4,0-2.5,1.1-2.5,2.5C305.2,399,306.3,400.1,307.7,400.1 M303.7,429.2c1.4,0,2.5-1.1,2.5-2.5
	c0-1.4-1.1-2.5-2.5-2.5c-1.4,0-2.5,1.1-2.5,2.5C301.2,428,302.3,429.2,303.7,429.2 M305.5,444.5c0-1.4-1.1-2.5-2.5-2.5
	c-1.4,0-2.5,1.1-2.5,2.5c0,1.4,1.1,2.5,2.5,2.5C304.4,447,305.5,445.8,305.5,444.5 M302.7,460.3c-1.4,0-2.5,1.1-2.5,2.5
	c0,1.4,1.1,2.5,2.5,2.5c1.4,0,2.5-1.1,2.5-2.5C305.2,461.4,304,460.3,302.7,460.3"/>
<path class="st3" d="M346,455.3V448h-2.7v-1h6.6v1h-2.8v7.3 M352.1,455.3v-7.1l2.4,7.1h1l2.4-6.9v6.9h1.1V447h-1.5l-2,5.8
	c-0.2,0.6-0.3,1-0.4,1.4c-0.1-0.3-0.2-0.7-0.4-1.3l-2-5.9H351v8.3 M517.9,300.6v-7.4h2.8v-0.9h-6.6v0.9h2.7v7.4 M522.9,300.6v-7.1
	l2.4,7.1h1l2.4-6.9v6.9h1.1v-8.3h-1.5l-2,5.8c-0.2,0.6-0.4,1-0.4,1.4c-0.1-0.3-0.2-0.7-0.4-1.3l-2-5.9h-1.7v8.3"/>
</svg>
